<?xml version="1.0" encoding="utf-8"?>
<!-- Generator: Adobe Illustrator 18.0.0, SVG Export Plug-In . SVG Version: 6.00 Build 0)  -->
<!DOCTYPE svg PUBLIC "-//W3C//DTD SVG 1.1//EN" "http://www.w3.org/Graphics/SVG/1.1/DTD/svg11.dtd">
<svg version="1.1" id="Layer_1" xmlns="http://www.w3.org/2000/svg" xmlns:xlink="http://www.w3.org/1999/xlink" x="0px" y="0px"
	 viewBox="0 0 792.6 799" enable-background="new 0 0 792.6 799" xml:space="preserve">
<g>
	<g id="XMLID_3811_">
		<path fill="#F2D872" d="M540.1,353.9c-0.2,0.6-0.5,1-1.3,1c-1.9,0-1.9-2.9,0-2.9c0.1,0,0.1,0.1,0.1,0.1l-1.6-2.6L509,312.2
			c-3.8,2.7-8.2-3.1-4.6-6l-19-24.9l-33.4-15l-3.1,0c-1,4.9-5.3,8.6-10.5,8.6c-5.2,0-9.5-3.7-10.5-8.5l-42.8,0.1l-11.9,3.2
			c2.9,0.1,2.9,4.6-0.1,4.6c-2.5,0-2.9-3.3-1.2-4.3l-6.2,1.7l-54.6,23.5L271,339.3l-16.6,77.4l12.5,33.4l49.2,55.3l77,41.3
			l31.7-10.5c-2.3-0.8-4.1-2.9-4.1-5.5c0-3.2,2.6-5.8,5.8-5.8s5.8,2.6,5.8,5.8c0,1.3-0.5,2.4-1.2,3.3l50.2-16.6
			c-2.7-0.3-2.6-4.6,0.3-4.6c2.3,0,2.8,2.6,1.6,3.9l13.1-4.3c-0.4-1-0.7-2-0.7-3.2c0-4.3,3.5-7.8,7.8-7.8c2.5,0,4.8,1.2,6.2,3.1
			l32.8-56.5l3.5-26.2l11.8-40L540.1,353.9z M470.6,351.3c0,2.6-2.1,4.8-4.8,4.8c-2.6,0-4.8-2.1-4.8-4.8c0-2.6,2.1-4.8,4.8-4.8
			C468.4,346.5,470.6,348.6,470.6,351.3z M460.6,316c-3,0-3-4.6,0-4.6C463.5,311.4,463.5,316,460.6,316z M454,281
			c4.8,0,8.7,3.9,8.7,8.7c0,0.1,0,0.3,0,0.4c2.5,0.2,4.4,2.2,4.4,4.7c0,2.6-2.1,4.8-4.8,4.8c-1.7,0-3.2-1-4-2.3
			c-1.3,0.7-2.7,1.2-4.3,1.2c-4.8,0-8.7-3.9-8.7-8.7C445.3,284.9,449.2,281,454,281z M428.2,284.9c2.6,0,4.8,2.1,4.8,4.8
			c0,2.6-2.1,4.8-4.8,4.8c-2.6,0-4.8-2.1-4.8-4.8C423.4,287.1,425.6,284.9,428.2,284.9z M413.4,271.3c3,0,3,4.6,0,4.6
			C410.4,275.9,410.4,271.3,413.4,271.3z M416.2,521.5c-2,0-3.6-1.6-3.6-3.6c0-2,1.6-3.6,3.6-3.6c2,0,3.6,1.6,3.6,3.6
			C419.8,519.9,418.2,521.5,416.2,521.5z M458.5,501.8c-2.6,0-4.8-2.1-4.8-4.8c0-2.6,2.1-4.8,4.8-4.8c2.6,0,4.8,2.1,4.8,4.8
			C463.3,499.7,461.2,501.8,458.5,501.8z M464.9,475.1c-3.6,0-6.8-2-8.4-5l-8.1,14c2.1,1,3.6,3.2,3.6,5.7c0,3.5-2.8,6.4-6.4,6.4
			c-1.3,0-2.5-0.5-3.5-1.2l-2.6,4.5l-9,8.6l-24,4l-11.9-1.3l-23.8-2.7l-10.9-5.4l-10.6-5.7L313,466.8l-6.5-9.8l-5.6-10.5l-2.7-11.6
			l-2.3-11.7l-1.1-12.1l3.5-11.6l50.8-63.6l11.2-4.7l11.7-3.1l12-0.2l12.2-1.9l48.3,25.8c1-1.8,2.8-3.1,5-3.1c3.2,0,5.8,2.6,5.8,5.8
			c0,2.2-1.2,4-3,5l3.4,5.9l8.3,9.4l3.4,12.1l3.7,11.8l1.6,12.3l1.5,12.4l-1.4,12.4l-3.5,11.9l-4.6,8.1c0.1,0,0.1,0,0.2,0
			c5.4,0,9.7,4.3,9.7,9.7C474.6,470.7,470.3,475.1,464.9,475.1z M481.6,486.4c-2.6,0-4.8-2.1-4.8-4.8c0-2.6,2.1-4.8,4.8-4.8
			s4.8,2.1,4.8,4.8C486.4,484.3,484.2,486.4,481.6,486.4z M495.8,405.4c-3,0-3-4.6,0-4.6C498.7,400.8,498.7,405.4,495.8,405.4z
			 M495.2,357.7c-2.6,0-4.8-2.1-4.8-4.8c0-2.6,2.1-4.8,4.8-4.8c2.6,0,4.8,2.1,4.8,4.8C500,355.6,497.8,357.7,495.2,357.7z
			 M505.1,351c-3.6,0-6.6-2.9-6.6-6.6c0-3.6,2.9-6.6,6.6-6.6s6.6,2.9,6.6,6.6C511.7,348,508.7,351,505.1,351z M515.2,466.4
			c-3,0-3-4.6,0-4.6C518.2,461.8,518.2,466.4,515.2,466.4z M525.6,374c-3.9,3-8.5-3.1-4.6-6.1C524.9,365,529.5,371.1,525.6,374z
			 M541.5,396c-3.9,3-8.5-3.1-4.6-6.1C540.8,386.9,545.4,393,541.5,396z"/>
	</g>
	<g id="XMLID_3802_">
		<path fill="#43B649" d="M452.6,416.3l-7.8-19.7c-0.9,0.3-1.9,0.5-2.9,0.5c-4.8,0-8.7-3.9-8.7-8.7c0-3.6,2.2-6.6,5.2-8l-3.3-8.3
			l-8.2-5.1l-0.4-0.3c-0.7,0.5-1.6,0.8-2.5,0.8c-2.6,0-4.7-2.1-4.7-4.7c0-0.6,0.1-1.3,0.4-1.8l-0.1,0l-8.5-4.2l-9.1-3l-41.7,7.5
			c0.5,0.9,0.8,1.8,0.8,2.9c0,3.5-2.8,6.4-6.4,6.4c-3.5,0-6.4-2.8-6.4-6.4c0-0.3,0.1-0.5,0.2-0.8l-9.1,1.6l-1.8,1.1
			c0,0.2,0.1,0.4,0.1,0.6c0,2.6-2.1,4.8-4.8,4.8c-0.8,0-1.5-0.2-2.2-0.6l-4.9,6.8l-4.5,8.1l-4.3,8.2l-2,9l-1,9.1l6.5,36.6l3.4,8.8
			l3.8,8.7l56.4,24.9l24.7-7.3c-0.2-0.8-0.4-1.6-0.4-2.5c0-4.8,3.9-8.7,8.7-8.7c3.1,0,5.8,1.6,7.4,4.1l0.8-0.5l7.1-6.6l5.4-8.1
			l5.2-8.1l3.8-8.8l4.1-8.8l-0.2-9.8L452.6,416.3z M325.2,395.9c-2,0-3.6-1.6-3.6-3.6c0-2,1.6-3.6,3.6-3.6s3.6,1.6,3.6,3.6
			C328.8,394.3,327.2,395.9,325.2,395.9z M375.3,431.8c-3,0-3-4.6,0-4.6C378.3,427.2,378.3,431.8,375.3,431.8z M381.6,376.6
			c-2,0-3.6-1.6-3.6-3.6c0-2,1.6-3.6,3.6-3.6s3.6,1.6,3.6,3.6C385.2,375,383.6,376.6,381.6,376.6z M393.2,398.8c-3,0-3-4.6,0-4.6
			C396.2,394.2,396.2,398.8,393.2,398.8z M420.1,459.9c-2.6,0-4.8-2.1-4.8-4.8c0-2.6,2.1-4.8,4.8-4.8s4.8,2.1,4.8,4.8
			C424.8,457.7,422.7,459.9,420.1,459.9z M417.5,392.1c-4.8,0-8.7-3.9-8.7-8.7c0-4.8,3.9-8.7,8.7-8.7s8.7,3.9,8.7,8.7
			C426.3,388.1,422.3,392.1,417.5,392.1z M436.7,449.7c-2,0-3.6-1.6-3.6-3.6c0-2,1.6-3.6,3.6-3.6s3.6,1.6,3.6,3.6
			C440.3,448.1,438.7,449.7,436.7,449.7z"/>
	</g>
	<g id="XMLID_3798_">
		<g id="XMLID_3799_">
			<g id="XMLID_3800_">
				<path id="XMLID_3801_" fill="#FFFFFF" d="M579,732.9c1.8,0,1.8-2.7,0-2.7C577.2,730.1,577.2,732.9,579,732.9L579,732.9z"/>
			</g>
		</g>
	</g>
	<g id="XMLID_3794_">
		<g id="XMLID_3795_">
			<g id="XMLID_3796_">
				<path id="XMLID_3797_" fill="#FFFFFF" d="M581.5,738.3c3.7-2.8-0.7-8.5-4.3-5.7C573.5,735.4,577.8,741.1,581.5,738.3
					L581.5,738.3z"/>
			</g>
		</g>
	</g>
	<path id="XMLID_3751_" fill="#00A9A0" d="M607.4,335c-1.4,0.8-3.1,1.3-4.8,1.3c-5.4,0-9.8-4.4-9.8-9.8c0-5.4,4.4-9.8,9.8-9.8
		c1.4,0,2.7,0.3,4,0.8l-0.5-9.2l-10-22.1c-0.4,0.1-0.7,0.2-1.1,0.2c-3.3,0-6.1-2.7-6.1-6.1c0-1.7,0.7-3.2,1.8-4.3l-14.1-12.3
		c-0.2,0.5-0.5,1-1.2,1c-1.6,0-1.7-2-0.6-2.6l-31.9-27.7c-0.2,0.4-0.5,0.8-1.2,0.8c-1.5,0-1.7-1.8-0.9-2.5L491.4,190l-67.1-8.6
		l-35-2.8l-25.8,4.1c1.4,1.4,2.2,3.3,2.2,5.3c0,4.2-3.4,7.6-7.6,7.6c-4.2,0-7.6-3.4-7.6-7.6c0-0.3,0.1-0.6,0.1-0.9L303.4,214
		l-39.3,15.6c-1.4,7.2-7.8,12.6-15.4,12.6c-3.4,0-6.5-1.1-9.1-2.9l-32.3,12.8L170,307.6l-11.4,45.3c2.8,0.6,5,3,5,6
		c0,3.5-2.8,6.3-6.3,6.3c-0.6,0-1.2-0.2-1.7-0.3l-1.6,6.4l-0.9,5.6c3,0.8,5.3,3.5,5.3,6.8c0,3.9-3.2,7-7,7c-0.1,0-0.3,0-0.4,0
		l-2.1,13l4.8,33l2.7,33.8l16.8,29.4l28.7,30.6c1.4-0.7,2.9-1.2,4.6-1.2c5.4,0,9.8,4.4,9.8,9.8c0,1.9-0.6,3.7-1.5,5.2L263,596
		l66.1,20.6l21.8,10.3l92.8-0.8c-1.5-1.4-2.5-3.4-2.5-5.6c0-4.2,3.4-7.6,7.6-7.6c4.2,0,7.6,3.4,7.6,7.6c0,2.2-0.9,4.1-2.4,5.5l4.2,0
		l6.5-4.9c0.1-0.7,0.4-1.3,1.1-1.9c0.7-0.5,1.5-0.7,2.1-0.5l38.6-29l35.4-5.9l23.5-23.1l16.2-28.7l15.3-28.4l10.6-30.4l5.3-31.7
		L607.4,335z M177.8,353.4c-2.6,0-4.7-2.1-4.7-4.7c0-2.6,2.1-4.7,4.7-4.7s4.7,2.1,4.7,4.7C182.5,351.3,180.4,353.4,177.8,353.4z
		 M185.5,352.5c-1.6,0-3-1.3-3-3c0-1.6,1.3-3,3-3c1.6,0,3,1.3,3,3C188.4,351.2,187.1,352.5,185.5,352.5z M200,333.6
		c-3.9,0-7.1-3.2-7.1-7.1c0-3.9,3.2-7.1,7.1-7.1c3.9,0,7.1,3.2,7.1,7.1C207.1,330.4,203.9,333.6,200,333.6z M596.2,374.8
		c-3,0-3-4.6,0-4.6C599.2,370.2,599.2,374.8,596.2,374.8z M594.1,362.8c-3.9,3-8.5-3.1-4.6-6.1C593.4,353.8,598.1,359.9,594.1,362.8
		z M588.4,321.4c1.9,0,1.9,2.9,0,2.9C586.5,324.4,586.5,321.4,588.4,321.4z M591.4,298.8c2.5,0,4.5,2,4.5,4.5c0,2.5-2,4.5-4.5,4.5
		c-2.5,0-4.5-2-4.5-4.5c0-0.2,0.1-0.3,0.1-0.4c-1.4-0.4-1.3-2.7,0.4-2.7c0.3,0,0.4,0.2,0.6,0.3C588.8,299.5,590,298.8,591.4,298.8z
		 M573.5,283.7c3.9-3,8.5,3.1,4.6,6.1C574.2,292.8,569.6,286.7,573.5,283.7z M566.3,332.3c1.9,0,1.9,2.9,0,2.9
		C564.4,335.2,564.4,332.3,566.3,332.3z M535.4,275.4c3.9-3,8.5,3.1,4.6,6.1C536.1,284.4,531.4,278.3,535.4,275.4z M516.5,237.6
		c3.9-3,8.5,3.1,4.6,6.1C517.2,246.6,512.5,240.5,516.5,237.6z M510.8,257.7c1.9,0,1.9,2.9,0,2.9
		C508.9,260.6,508.9,257.7,510.8,257.7z M455.3,229.4c-3.9,3-8.5-3.1-4.6-6.1C454.7,220.4,459.3,226.5,455.3,229.4z M444.6,195.6
		c3.9-3,8.5,3.1,4.6,6.1C445.3,204.7,440.7,198.6,444.6,195.6z M384.3,211.9c3,0,3,4.6,0,4.6C381.4,216.5,381.4,211.9,384.3,211.9z
		 M374.3,186.8c2.1,0,3.8,1.7,3.8,3.8c0,2.1-1.7,3.8-3.8,3.8s-3.8-1.7-3.8-3.8C370.6,188.5,372.3,186.8,374.3,186.8z M375.2,202
		c3.1,0,5.6,2.5,5.6,5.6c0,3.1-2.5,5.6-5.6,5.6s-5.6-2.5-5.6-5.6C369.6,204.6,372.1,202,375.2,202z M339.3,205.2c2.8,0,5,2.2,5,5
		c0,2.8-2.2,5-5,5s-5-2.2-5-5C334.3,207.5,336.5,205.2,339.3,205.2z M222.2,374.8c-2.6,0-4.7-2.1-4.7-4.7c0-2.6,2.1-4.7,4.7-4.7
		s4.7,2.1,4.7,4.7C226.9,372.7,224.8,374.8,222.2,374.8z M236.7,384.9c-2.1,0-3.8-1.7-3.8-3.8c0-2.1,1.7-3.8,3.8-3.8
		c2.1,0,3.8,1.7,3.8,3.8C240.5,383.2,238.8,384.9,236.7,384.9z M281.2,540.6c-5.4,0-9.8-4.4-9.8-9.8c0-5.4,4.4-9.8,9.8-9.8
		c5.4,0,9.8,4.4,9.8,9.8C291,536.2,286.6,540.6,281.2,540.6z M407.7,620.2c-2.8,0-5-2.2-5-5c0-2.8,2.2-5,5-5s5,2.2,5,5
		C412.7,618,410.4,620.2,407.7,620.2z M426.5,600.6c-4.2,0-7.6-3.4-7.6-7.6c0-4.2,3.4-7.6,7.6-7.6s7.6,3.4,7.6,7.6
		C434.1,597.2,430.7,600.6,426.5,600.6z M443.6,613.8c-3.1,0-5.6-2.5-5.6-5.6s2.5-5.6,5.6-5.6c3.1,0,5.6,2.5,5.6,5.6
		S446.7,613.8,443.6,613.8z M452.2,578.8c-1.4,0-1.4-2.1,0-2.1C453.6,576.7,453.6,578.8,452.2,578.8z M468.2,587.7
		c2.2,0,2.2,3.4,0,3.4C466,591.1,466,587.7,468.2,587.7z M470.7,577.5c1.4,0,1.4,2.1,0,2.1C469.3,579.6,469.3,577.5,470.7,577.5z
		 M471.8,602.2c-2.9,2.2-6.2-2.3-3.4-4.5C471.3,595.6,474.7,600,471.8,602.2z M471.9,575.2c-2.9,2.2-6.2-2.3-3.4-4.5
		C471.4,568.6,474.8,573,471.9,575.2z M480.6,575.7c-1.4,0-1.4-2.1,0-2.1C481.9,573.6,481.9,575.7,480.6,575.7z M492.4,598.1
		c-1.4,0-1.4-2.1,0-2.1S493.7,598.1,492.4,598.1z M567,494c-3.3,0-3.3-5.2,0-5.2C570.4,488.9,570.4,494,567,494z M559.6,467.4
		l-17.2,37.7l-58.1,37.5c1.2,1,1.7,3.1,0.1,4.4c-1.8,1.4-3.8,0.1-4.3-1.6l-15,9.7l-69.4,3.3l-64.3-25.6L311,521.1l-55.1-55
		l-6.6-17.4c-0.9,0.6-2,1-3.1,1c-3.4,0-6.1-2.7-6.1-6.1c0-3,2.2-5.4,5-5.9l-4.4-11.5l8.5-62.9c-0.6,0.3-1.3,0.5-2.1,0.5
		c-2.7,0-4.9-2.2-4.9-4.9c0-2.7,2.2-4.9,4.9-4.9c1.2,0,2.3,0.5,3.2,1.3l3.8-27.9l39.1-49.8l13.6-16.9l21.1-5.8l51.2-25.8l51.5-3.6
		L535.3,284l34.9,87.5c2.7,0.7,4.4,4.6,1.5,6.8c-0.7,0.5-1.4,0.7-2,0.7L559.6,467.4z M574.9,522.9c-6.4,0-6.3-9.9,0-9.9
		C581.3,513,581.3,522.9,574.9,522.9z M579.4,408.9c-1.9,0-1.9-2.9,0-2.9C581.2,406,581.2,408.9,579.4,408.9z M579.4,325.8
		c-3,0-3-4.6,0-4.6C582.4,321.2,582.4,325.8,579.4,325.8z M585.6,289.4c3,0,3,4.6,0,4.6C582.6,294,582.7,289.4,585.6,289.4z
		 M587.3,453.4c3.9-3,8.5,3.1,4.6,6.1C588,462.5,583.3,456.4,587.3,453.4z M596.9,487.9c-3.9,3-8.5-3.1-4.6-6.1
		C596.3,478.9,600.9,485,596.9,487.9z M596.8,388.2c3.9-3,8.5,3.1,4.6,6.1C597.5,397.3,592.9,391.2,596.8,388.2z M603.5,427.5
		c3.9-3,8.5,3.1,4.6,6.1C604.2,436.6,599.6,430.5,603.5,427.5z"/>
	<path id="XMLID_3612_" fill="#30B5E4" d="M788.7,426.7c-1.8-1.2-2.6-4-0.7-5.8l-8.1-65.4c-0.2,0.6-0.6,1.2-1.2,1.7
		c-2.7,2.1-5.8-0.3-6-2.9c-0.3,0.9-1,1.7-2.2,1.7c-3.1,0-3.1-4.9,0-4.9c1.4,0,2.2,1,2.3,2.1c0.2-0.8,0.5-1.5,1.3-2.1
		c2.1-1.6,4.3-0.6,5.4,1.1l-4.5-36c-3.1-1.6-3.4-6.1-1-8.4l-2-15.7c-0.4,0.1-0.9,0.1-1.4,0.1c-11.4,0-11.6-17.1-0.9-18l-7.1-57
		c-0.1,0-0.1,0-0.1,0c-0.7,0-1.3-0.3-1.6-0.8c-0.4,0.1-0.7,0.2-1.2,0.2c-5.9,0-5.9-9.2,0-9.2c0.7,0,1.3,0.1,1.8,0.4l-1.6-13
		l-1.6-1.9c-1.2,2.4-3.6,4.3-7.1,4.3c-4.3,0-6.8-2.6-7.7-5.8c-1.7-2.5-1.2-6.4,1.4-8.1c0.8-1.1,2-1.9,3.5-2.4l-11.8-14.3
		c-0.2-0.2-0.3-0.3-0.4-0.5L722.7,150c-3.6,2-7.3-2.7-4.7-5.7l-3.7-4.5c-0.3,0.3-0.7,0.5-1.2,0.5c-1.9,0-2.3-2.3-1.2-3.3l-1.9-2.3
		l-5.6-4.1c-0.1,0-0.1,0.1-0.2,0.1c-0.9,0-1.3-0.6-1.4-1.3l-7-5c-0.3,0.2-0.8,0.4-1.3,0.4c-1.7,0-2.4-1.6-2.1-2.9l-33.5-24.1
		c-2.5,1.6-5.4,2.5-8.5,2.5c-8.7,0-15.8-7.1-15.8-15.8c0-0.4,0.1-0.8,0.1-1.2l-46.5-18.2l-17.9-30.7l-33-10.8
		c-1.8,6.7-7.9,11.7-15.2,11.7c-8.7,0-15.8-7.1-15.8-15.8c0-1.8,0.4-3.5,0.9-5.1l-38-9.7c-1,3.9-4.4,6.7-8.6,6.7
		c-4.9,0-8.9-4-8.9-8.9c0-0.1,0-0.3,0-0.4L403.7,0l-56.9,3.6l-56.2,10.5l-24.5,12.2c2,1.7,3.2,4.2,3.2,7c0,5.2-4.2,9.5-9.5,9.5
		c-5,0-9-3.9-9.4-8.8l-11.1,5.5l-10.6,4.2c0.1,0.4,0.2,0.7,0.2,1.1c0,3.5-2.8,6.3-6.3,6.3c-2.2,0-4.1-1.2-5.2-2.9L186,60.7L143,99
		l-40.5,40.2l-36.7,44.1l-28,50.4L0,301.8l24.4,160c0.6-0.2,1.3-0.4,2.1-0.4c3.3,0,6.1,2.7,6.1,6.1c0,0.1,0,0.1,0,0.2
		c0.7-0.8,1.7-1.3,2.8-1.3c2.1,0,3.8,1.7,3.8,3.8s-1.7,3.8-3.8,3.8c-2,0-3.5-1.5-3.7-3.4c-1.1,1.8-2.9,3-5.1,3
		c-0.1,0-0.2-0.1-0.3-0.1L39.8,563c0.3,0,0.6-0.2,0.9-0.2c3.3,0,6.1,2.7,6.1,6.1c0,2-1.1,3.7-2.6,4.8l29.7,41.6l24.3,53.3l49,31.4
		l2.4,2.4c1.1-0.4,2.3-0.7,3.5-0.7c5.6,0,10.1,4.5,10.1,10.1c0,1.3-0.3,2.6-0.7,3.7l24.9,25.5l50.9,25.8l156,32.1
		c0.5-5.1,4.8-9.1,10-9.1c5.2,0,9.5,4,10,9.1l44.9-8.6l17.9-3.5c-0.4-0.7-0.6-1.4-0.6-2.2c0-2.6,2.1-4.7,4.7-4.7s4.7,2.1,4.7,4.7
		c0,0.2-0.1,0.3-0.1,0.5l28-5.5l55.8-11.6l49.2-28.8l48.9-30.2l35.4-45.7l42.1-40.1l26.5-51.8l16-55.8l4.8-57.3L788.7,426.7z
		 M769.9,332c3.3,0,3.3,5.1,0,5.1C766.6,337.1,766.6,332,769.9,332z M764.3,346.2c1.9,0,1.9,2.9,0,2.9
		C762.5,349.1,762.5,346.2,764.3,346.2z M762.4,383c-3.1,0-3.1-4.8,0-4.8C765.5,378.3,765.5,383,762.4,383z M759.2,250.2
		c0.2,0.8-0.2,1.7-1.3,1.7c-0.8,0-1.2-0.6-1.3-1.2c-8-0.1-7.9-12.4,0.1-12.4C763.6,238.3,764.5,247.8,759.2,250.2z M749.5,312.8
		c4.1,0,4,6.3,0,6.3C745.5,319.1,745.5,312.8,749.5,312.8z M746.5,360.9c-1.9,0-1.9-2.9,0-2.9C748.4,358,748.4,360.9,746.5,360.9z
		 M750.9,359.5c3.2,0,3.2,5,0,5C747.7,364.5,747.7,359.5,750.9,359.5z M751.7,342.6c-3.2,0-3.2-4.9,0-4.9
		C754.9,337.7,754.9,342.6,751.7,342.6z M753.3,307c-3.9,3-8.5-3.1-4.6-6.1C752.6,297.9,757.2,304,753.3,307z M747.7,233.8
		c-2,0-2-3.1,0-3.1C749.6,230.7,749.6,233.8,747.7,233.8z M750.3,288.8c1.9,0,1.9,2.9,0,2.9C748.5,291.7,748.5,288.8,750.3,288.8z
		 M755.4,273.9c3.9-3,8.5,3.1,4.6,6.1C756.1,282.9,751.5,276.8,755.4,273.9z M756.4,229.4c2.1,0,2.1,3.2,0,3.2
		C754.3,232.7,754.3,229.4,756.4,229.4z M755.8,225.6c0,2.5-2,4.6-4.6,4.6c-2.5,0-4.6-2-4.6-4.6c0-2.5,2-4.6,4.6-4.6
		C753.8,221.1,755.8,223.1,755.8,225.6z M752,202.7c4.2,0,4.2,6.5,0,6.5C747.8,209.2,747.8,202.7,752,202.7z M747.4,218.7
		c2.1,0,2.1,3.2,0,3.2C745.3,221.9,745.3,218.7,747.4,218.7z M747.2,256.9c1.9,0,1.9,2.9,0,2.9C745.3,259.8,745.3,256.9,747.2,256.9
		z M744.5,338.8c-1.9,0-1.9-2.9,0-2.9C746.4,335.9,746.4,338.8,744.5,338.8z M738.6,293.8c-7.5,0-7.5-11.6,0-11.6
		C746.1,282.2,746,293.8,738.6,293.8z M733.9,334c-3.4,0-3.4-5.2,0-5.2C737.2,328.8,737.2,334,733.9,334z M733.2,345.9
		c-1.9,0-1.9-2.9,0-2.9C735,343,735,345.9,733.2,345.9z M724,204.7c2,0,2,3.1,0,3.1C722,207.8,722,204.7,724,204.7z M722.5,182.3
		c-3,0-3-4.6,0-4.6C725.5,177.7,725.5,182.3,722.5,182.3z M724.7,216.7c2.1,0,2.1,3.3,0,3.3C722.6,220,722.6,216.7,724.7,216.7z
		 M728.6,228.4c4.2,0,4.2,6.5,0,6.5C724.4,234.9,724.4,228.4,728.6,228.4z M730.5,263.2c1.9,0,1.9,2.9,0,2.9
		C728.6,266.2,728.6,263.2,730.5,263.2z M729.4,246.4c1.9,0,1.9,3,0,3C727.5,249.4,727.5,246.4,729.4,246.4z M723.1,309
		c3.9-3,8.5,3.1,4.6,6.1C723.8,318.1,719.2,312,723.1,309z M720.8,280.9c3.9-3,8.5,3.1,4.6,6.1C721.5,290,716.9,283.9,720.8,280.9z
		 M730.5,283.5c1.9,0,1.9,2.9,0,2.9C728.7,286.4,728.7,283.5,730.5,283.5z M732.7,309.7c3.1,0,3.1,4.9,0,4.9
		C729.5,314.6,729.6,309.7,732.7,309.7z M737.3,305.9c1.9,0,1.9,2.9,0,2.9C735.5,308.8,735.5,305.9,737.3,305.9z M742.6,247.8
		c1.9,0,1.9,3,0,3C740.7,250.7,740.7,247.8,742.6,247.8z M741.9,262.2c-0.4,0.3-0.9,0.5-1.3,0.6c0.6,2.6-0.8,5.8-4.3,5.8
		c-5.8,0-5.9-8.8-0.4-9.2c-0.2-1.2,0.2-2.4,1.4-3.3C741.2,253.1,745.8,259.2,741.9,262.2z M735.4,236c2,0,2,3.1,0,3.1
		S733.4,236,735.4,236z M735.9,225.3c-2,0-2-3.1,0-3.1C737.9,222.2,737.9,225.3,735.9,225.3z M734.1,206.7c0.2,0,0.3-0.1,0.5-0.1
		c2.5,0,2.5,3.9,0,3.9c-0.5,0-0.8-0.2-1.1-0.4c-0.6,0.6-1.4,1.1-2.5,1.1c-4.4,0-4.4-6.8,0-6.8C732.7,204.4,733.7,205.5,734.1,206.7z
		 M727.7,194.7c-4.7,0-4.7-7.3,0-7.3C732.4,187.4,732.4,194.7,727.7,194.7z M726.2,173.1c3.8,0,3.8,5.8,0,5.8
		C722.5,178.9,722.5,173.1,726.2,173.1z M721.4,153.6c2.6,0,2.6,4.1,0,4.1C718.8,157.7,718.8,153.6,721.4,153.6z M720.2,236.4
		c3.9-3,8.5,3.1,4.6,6.1c-2.4,1.8-5.1,0.2-5.9-2c-0.2,0.2-0.5,0.4-0.9,0.4c-2,0-2-3,0-3c0.4,0,0.6,0.2,0.9,0.4
		C719.1,237.6,719.5,236.9,720.2,236.4z M714.4,240.8c3.5,0,3.5,5.4,0,5.4C710.9,246.2,710.9,240.8,714.4,240.8z M715.6,221.6
		c3.2,0,3.2,5,0,5C712.4,226.6,712.4,221.6,715.6,221.6z M713.4,261.1c3.5,0,3.5,5.5,0,5.5C709.8,266.6,709.9,261.1,713.4,261.1z
		 M715.1,288.9c3.4,0,3.4,5.3,0,5.3C711.7,294.2,711.7,288.9,715.1,288.9z M712.9,194.9c-2.2,0-2.2-3.4,0-3.4
		C715.1,191.6,715.1,194.9,712.9,194.9z M712.5,161.4c2.2,0,2.2,3.4,0,3.4C710.3,164.8,710.3,161.4,712.5,161.4z M711.9,174.2
		c2.2,0,2.2,3.4,0,3.4C709.6,177.6,709.6,174.2,711.9,174.2z M707.6,148.8c2.2,0,2.2,3.4,0,3.4C705.4,152.2,705.4,148.8,707.6,148.8
		z M707.9,203.4c1.7,0,2.6,1.1,2.8,2.4c0.9-0.2,1.7,0,2.4,0.4c-1.4-1.7-0.7-5,2.2-5c3.8,0,3.8,6,0,6c-0.5,0-1-0.1-1.4-0.3
		c1.6,1.5,2.1,4.1-0.1,5.8c-2.8,2.1-6-0.4-6.1-3.1C704.1,209.2,704.1,203.4,707.9,203.4z M704.1,223.6c0-1.4,0.8-2.8,2.6-2.8
		c3.5,0,3.5,5.4,0,5.4c-0.2,0-0.4-0.1-0.6-0.1c0,1.3-0.8,2.6-2.5,2.6c-3.4,0-3.4-5.2,0-5.2C703.7,223.5,703.9,223.5,704.1,223.6z
		 M707.8,269.8c-1.9,0-1.9-2.9,0-2.9C709.7,266.9,709.7,269.8,707.8,269.8z M688.6,249.6c-1.9,0-1.9-2.9,0-2.9c1,0,1.4,0.8,1.4,1.6
		c0.6-0.6,1.4-1,2.5-1c4.9,0,4.8,7.5,0,7.5c-3.2,0-4.2-3.2-3.2-5.5C689.1,249.5,688.9,249.6,688.6,249.6z M683.7,194.7
		c-3.3,0-3.3-5.1,0-5.1C687,189.6,687,194.7,683.7,194.7z M682.7,237.8c-1.9,0-1.9-2.9,0-2.9C684.6,234.9,684.6,237.8,682.7,237.8z
		 M682.6,189.1c-3.9,3-8.5-3.1-4.6-6.1C681.9,180.1,686.5,186.2,682.6,189.1z M680.5,176c2.4,0,2.4,3.8,0,3.8
		C678.1,179.7,678.1,176,680.5,176z M689.3,227.9c3.9-3,8.5,3.1,4.6,6.1c-1.3,1-2.6,0.9-3.8,0.4c-0.1,0-0.2,0.1-0.4,0.1
		c-2,0-2.6-2.1-1.9-3.5C687.9,229.8,688.2,228.7,689.3,227.9z M691.7,212.6c3.7,0,3.7,5.7,0,5.7C688,218.3,688,212.6,691.7,212.6z
		 M692.9,204.8c-5,0-5-7.7,0-7.7C697.9,197.1,697.9,204.8,692.9,204.8z M690.7,189.7c-2.2,0-2.2-3.4,0-3.4
		C693,186.2,692.9,189.7,690.7,189.7z M687.4,151.4c-2.3,0-2.3-3.6,0-3.6C689.7,147.8,689.7,151.4,687.4,151.4z M685.8,166.6
		c1.9,0,1.9,3,0,3C683.9,169.6,683.9,166.6,685.8,166.6z M686.7,209.1c3,0,3,4.7,0,4.7C683.7,213.8,683.7,209.1,686.7,209.1z
		 M685.9,271.6c1.9,0,1.9,2.9,0,2.9C684,274.5,684,271.6,685.9,271.6z M695.2,271.2c3.2,0,3.1,4.9,0,4.9
		C692,276.1,692,271.2,695.2,271.2z M695.7,288.2c0.1-0.1,0.2-0.1,0.3-0.2c-1.1-0.6-1-2.6,0.6-2.6c1.2,0,1.6,1.2,1.2,2.1
		c3.2-0.1,5.7,4.4,2.5,6.8C696.4,297.3,691.7,291.2,695.7,288.2z M700.4,266.6c-3.9,3-8.5-3.1-4.6-6.1
		C699.7,257.5,704.4,263.6,700.4,266.6z M702.3,252.7c1.9,0,1.9,2.9,0,2.9C700.4,255.6,700.4,252.7,702.3,252.7z M701.1,191.9
		c-3,0-3-4.7,0-4.7C704.2,187.2,704.2,191.9,701.1,191.9z M700.4,180.5c2,0,2,3.1,0,3.1C698.4,183.6,698.4,180.5,700.4,180.5z
		 M700.4,163.9c2.8,0,3,4,0.5,4.6c-0.2,1-0.9,1.8-2.2,1.8c-2.9,0-3-4.1-0.5-4.6C698.4,164.7,699.2,163.9,700.4,163.9z M697.1,157.4
		c-1.9,0-1.9-2.9,0-2.9C698.9,154.5,698.9,157.4,697.1,157.4z M695.1,144.5c-1.9,0-1.9-3,0-3C697,141.5,697,144.5,695.1,144.5z
		 M693.2,129.2c2.1,0,2.1,3.2,0,3.2C691.1,132.4,691.1,129.2,693.2,129.2z M685.5,125.6c3.9-3,8.5,3.1,4.6,6.1
		C686.2,134.7,681.6,128.6,685.5,125.6z M682.5,143.8c-3,0-3-4.6,0-4.6C685.5,139.2,685.5,143.8,682.5,143.8z M680.7,135.4
		c1.9,0,1.9,2.9,0,2.9C678.9,138.3,678.9,135.4,680.7,135.4z M676.1,157c-0.1-0.8,0.3-1.6,1.3-1.6c0.5,0,0.8,0.2,1.1,0.5
		c3.2-0.2,5.8,4.3,2.6,6.8C677.3,165.5,673,160.1,676.1,157z M674.4,224.8c-3.7,0-3.7-5.8,0-5.8
		C678.1,219.1,678.1,224.8,674.4,224.8z M671.7,214.8c-3.9,3-8.5-3.1-4.6-6.1C671,205.7,675.6,211.8,671.7,214.8z M669.9,192.7
		c-1.9,0-1.9-2.9,0-2.9C671.7,189.8,671.7,192.7,669.9,192.7z M668.3,123.9c1.9,0,1.9,2.9,0,2.9
		C666.5,126.8,666.5,123.9,668.3,123.9z M663.8,204c-3,0-3-4.6,0-4.6C666.8,199.4,666.8,204,663.8,204z M661.9,159.8
		c1.9,0,1.9,2.9,0,2.9C660,162.7,660,159.8,661.9,159.8z M662.1,131.6c1.9,0,1.9,2.9,0,2.9C660.2,134.5,660.2,131.6,662.1,131.6z
		 M661,145.5c0.3,0,0.4,0.2,0.6,0.3c0.1-1.1,0.8-2.1,2.2-2.1c3,0,3,4.6,0,4.6c-0.7,0-1.3-0.3-1.6-0.7c-0.2,0.4-0.5,0.8-1.2,0.8
		C659.1,148.4,659.1,145.5,661,145.5z M643.6,161.6c3.9-3,8.5,3.1,4.6,6.1C644.3,170.7,639.7,164.6,643.6,161.6z M644.1,181.1
		c3,0,3,4.6,0,4.6C641.1,185.7,641.1,181.1,644.1,181.1z M638.2,178.5c1.9,0,1.9,2.9,0,2.9C636.4,181.5,636.4,178.5,638.2,178.5z
		 M627.5,134.9c3.9-3,8.5,3.1,4.6,6.1C628.2,144,623.6,137.9,627.5,134.9z M598.2,91.1c3,0,3,4.6,0,4.6
		C595.2,95.7,595.2,91.1,598.2,91.1z M590.4,135.2c-0.4,0-0.7-0.2-0.9-0.4c-3.8,2.1-7.8-3.5-4.1-6.3c3.2-2.4,6.8,1.2,5.9,4.2
		C592.1,133.5,591.8,135.2,590.4,135.2z M583.8,62.5c1.9,0,1.9,2.9,0,2.9C582,65.4,582,62.5,583.8,62.5z M583.5,95.8
		c1.5-1.1,3.1-0.9,4.3-0.1c0.1-0.7,0.5-1.3,1.3-1.3c1.9,0,1.9,2.9,0,2.9c0.7,1.5,0.7,3.3-1,4.6C584.1,104.9,579.5,98.8,583.5,95.8z
		 M576.5,52.1c1.9,0,1.9,2.9,0,2.9S574.6,52.1,576.5,52.1z M567.9,71c3.9-3,8.5,3.1,4.6,6.1C568.6,80,564,73.9,567.9,71z
		 M554.6,105.5c3.9-3,8.5,3.1,4.6,6.1C555.3,114.6,550.7,108.5,554.6,105.5z M544.2,49.5c3.9-3,8.5,3.1,4.6,6.1
		C544.9,58.6,540.3,52.5,544.2,49.5z M538.8,85.8c3.9-3,8.5,3.1,4.6,6.1C539.5,94.8,534.9,88.8,538.8,85.8z M519.2,54.8
		c3.9-3,8.5,3.1,4.6,6.1C519.9,63.8,515.3,57.7,519.2,54.8z M509.6,87.9c-3,0-3-4.6,0-4.6C512.5,83.3,512.5,87.9,509.6,87.9z
		 M503.9,73.5c3.9-3,8.5,3.1,4.6,6.1C504.6,82.6,500,76.5,503.9,73.5z M497.8,66.7c3,0,3,4.6,0,4.6
		C494.9,71.4,494.9,66.7,497.8,66.7z M482,19.3c3.9-3,8.5,3.1,4.6,6.1C482.7,28.3,478.1,22.2,482,19.3z M476.1,24.4
		c4.9,0,8.9,4,8.9,8.9c0,4.9-4,8.9-8.9,8.9c-4.9,0-8.9-4-8.9-8.9C467.1,28.4,471.1,24.4,476.1,24.4z M478.3,71.6
		c-3.9,3-8.5-3.1-4.6-6.1C477.6,62.5,482.2,68.6,478.3,71.6z M389.2,38.9c2.5,0,4.5,2,4.5,4.5c0,2.5-2,4.5-4.5,4.5
		c-2.5,0-4.5-2-4.5-4.5C384.7,40.9,386.7,38.9,389.2,38.9z M374.3,54c4,0,7.2,3.2,7.2,7.2c0,4-3.2,7.2-7.2,7.2c-4,0-7.2-3.2-7.2-7.2
		C367.1,57.3,370.3,54,374.3,54z M313.4,78.7c3.9-3,8.5,3.1,4.6,6.1C314.1,87.8,309.5,81.7,313.4,78.7z M284.9,23.4
		c3.9-3,8.5,3.1,4.6,6.1C285.6,32.5,281,26.4,284.9,23.4z M250.8,44.9c2.6,0,4.7,2.1,4.7,4.7s-2.1,4.7-4.7,4.7
		c-2.6,0-4.7-2.1-4.7-4.7S248.2,44.9,250.8,44.9z M51.4,497.2c3.3,0,6.1,2.7,6.1,6.1c0,3.3-2.7,6.1-6.1,6.1c-3.3,0-6.1-2.7-6.1-6.1
		C45.3,499.9,48.1,497.2,51.4,497.2z M40.6,514.5c0-2.1,1.7-3.8,3.8-3.8c2.1,0,3.8,1.7,3.8,3.8c0,2.1-1.7,3.8-3.8,3.8
		C42.3,518.3,40.6,516.6,40.6,514.5z M46.1,549.9c-2.1,0-3.8-1.7-3.8-3.8c0-2.1,1.7-3.8,3.8-3.8c2.1,0,3.8,1.7,3.8,3.8
		C49.9,548.2,48.2,549.9,46.1,549.9z M49.6,530.3c-2.1,0-3.8-1.7-3.8-3.8c0-2.1,1.7-3.8,3.8-3.8s3.8,1.7,3.8,3.8
		C53.3,528.6,51.7,530.3,49.6,530.3z M72.3,570.6c3.9-3,8.5,3.1,4.6,6.1C73,579.6,68.4,573.5,72.3,570.6z M78.1,616.9
		c-1.9,0-1.9-2.9,0-2.9C79.9,614,79.9,616.9,78.1,616.9z M85.1,580.7c-1.9,0-1.9-2.9,0-2.9C87,577.8,87,580.7,85.1,580.7z
		 M103.3,618c-1.9,0-1.9-2.9,0-2.9C105.2,615.1,105.2,618,103.3,618z M105,611.9c-3.9,3-8.5-3.1-4.6-6.1
		C104.3,602.8,108.9,608.9,105,611.9z M417.5,789.6c-3.5,0-6.3-2.8-6.3-6.3c0-3.5,2.8-6.3,6.3-6.3s6.3,2.8,6.3,6.3
		C423.8,786.8,421,789.6,417.5,789.6z M449.1,775.6c-2.6,0-4.7-2.1-4.7-4.7s2.1-4.7,4.7-4.7s4.7,2.1,4.7,4.7
		S451.7,775.6,449.1,775.6z M694.4,617.9l-33.9,24.9L561.1,741l-82.8,6.4c0.1,0.4,0.1,0.8,0.1,1.3c0,3.9-3.2,7.1-7.1,7.1
		s-7.1-3.2-7.1-7.1c0-0.1,0-0.1,0-0.2l-14.3,1.1l-59.4,12l-32.3-5.7L318,738.4L116.3,614.1l-29.4-41.9l-20.8-37.5
		c-0.4,0-0.7,0.1-1.1,0.1c-5.4,0-9.7-4.3-9.7-9.7c0-4.3,2.8-7.9,6.6-9.2l0.2-35.2c-1.5,0-2.9-0.6-4-1.6c0.1,0.4,0.2,0.8,0.2,1.2
		c0,2.1-1.7,3.8-3.8,3.8s-3.8-1.7-3.8-3.8c0-2.1,1.7-3.8,3.8-3.8c0.8,0,1.5,0.3,2.2,0.8c-0.4-0.8-0.7-1.7-0.7-2.6
		c0-3,2.3-5.4,5.2-5.9l-6.7-43.5l2.2-96.1c-0.4,0.1-0.9,0.1-1.4,0.1c-3.9,0-7.1-3.2-7.1-7.1c0-3.9,3.2-7.1,7.1-7.1
		c0.6,0,1.1,0.1,1.7,0.2l0.6-24.7l49.7-44.9c-1.9-1.8-3.1-4.4-3.1-7.3c0-5.6,4.5-10.1,10.1-10.1c3.2,0,6.1,1.5,7.9,3.9l8.4-7.6
		l55.9-79.8l111.3-39l96.2,1.7c0.4-5.2,4.7-9.3,10.1-9.3c4,0,7.4,2.3,9,5.6l47-14.4l50.4,8l150.6,107.8l11,43.8
		c2.2,0.3,2.6,3.1,1.1,4.2l4.4,17.6l24.2,36.5l1.5,2c0.8-1.1,2-1.8,3.7-1.8c5.5,0,6.1,7.5,1.9,9.2l19.3,25.5l10.8,35.3
		c0.3-0.9,1-1.6,2.2-1.6c3.1,0,3.1,4.8,0,4.8c-0.6,0-1-0.2-1.3-0.5l13.8,44.9l-18.3,114.5L694.4,617.9z M727.5,574.3
		c-3,0-3-4.6,0-4.6C730.5,569.7,730.4,574.3,727.5,574.3z M732.9,555c3.9-3,8.5,3.1,4.6,6.1C733.6,564.1,729,558,732.9,555z
		 M741.6,593.2c-3.9,3-8.5-3.1-4.6-6.1C740.9,584.1,745.5,590.2,741.6,593.2z M748.9,534c-3.9,3-8.5-3.1-4.6-6.1
		C748.2,525,752.8,531.1,748.9,534z M753.9,475.4c-3,0-3-4.6,0-4.6C756.9,470.8,756.9,475.4,753.9,475.4z M755.2,373.1
		c-3.9,3-8.5-3.1-4.6-6.1C754.5,364,759.1,370.1,755.2,373.1z M756.3,330.9c3.9-3,8.5,3.1,4.6,6.1C757,340,752.4,333.9,756.3,330.9z
		 M760.4,416.9c3.9-3,8.5,3.1,4.6,6.1C761.1,426,756.5,419.9,760.4,416.9z M765.4,523.3c-3,0-3-4.6,0-4.6
		C768.3,518.7,768.3,523.3,765.4,523.3z M768.5,558.4c-0.2,0-0.4-0.1-0.6-0.1c0,0-0.1,0.1-0.1,0.1c-3.9,3-8.5-3.1-4.6-6.1
		c2.3-1.7,4.7-0.4,5.6,1.5C771.5,554.2,771.4,558.4,768.5,558.4z M769.6,397.5c-3,0-3-4.6,0-4.6
		C772.6,392.9,772.6,397.5,769.6,397.5z M774.7,443.6c3,0,3,4.6,0,4.6C771.7,448.2,771.7,443.6,774.7,443.6z M778.5,455.6
		c-3.9,3-8.5-3.1-4.6-6.1C777.8,446.5,782.4,452.6,778.5,455.6z"/>
	<path id="XMLID_3131_" fill="#007DC5" d="M708.5,344.8l-6.8-6.2c0,0.4-0.1,0.8-0.2,1.2c3.9,1.3,3.5,8-1.4,8c-3.5,0-4.6-3.5-3.6-5.9
		c-2.3-1.1-3.5-4.5-0.9-6.5c0.6-0.5,1.2-0.6,1.8-0.7L685.5,324l-22.3-33.8l-16.5-35.9c-3.5,1-6.8-4.1-3.3-6.7c0.1,0,0.1,0,0.2-0.1
		l-10.9-23.6c-1,0.4-2,0.7-3.2,0.7c-4.2,0-7.6-3.4-7.6-7.6c0-3.1,1.8-5.7,4.4-6.9l-1.1-2.4L545.7,150l-82.8-28.1l-74.9,7.6l-4.5,0.7
		c0.3,0.8,0.5,1.6,0.5,2.5c0,3.9-3.2,7.1-7.1,7.1c-3.9,0-7.1-3.2-7.1-7.1c0-0.1,0-0.2,0-0.3l-37.8,6.2c-0.1,0.1-0.2,0.2-0.3,0.3
		c-1.3,1-2.7,0.9-3.8,0.3l-41.2,6.8L188,195.5l-7.1,9c3.1,0.8,5.4,3.6,5.4,7c0,2.9-1.7,5.5-4.3,6.6c1.4,0.9,2.3,2.3,2.3,4
		c0,2.7-2.2,4.9-4.9,4.9s-4.9-2.2-4.9-4.9c0-1.6,0.8-2.9,2-3.8c-1.7-0.6-3-1.8-3.9-3.3l-18.5,23.6c3.1,1.6,5.2,4.8,5.2,8.5
		c0,5.4-4.3,9.7-9.7,9.7c-2.9,0-5.4-1.3-7.2-3.2l-31.3,40l-19.2,87.2l-6.4,98.7l10.3,48.1l23.1,41.9c3.9-2.9,8.4,2.9,4.7,5.9
		l29.1,36.5c3.4-1.6,6.8,2.8,4.5,5.7l1.3,1.6L329,714.1l39.8,25.7l32-7.8l55.1-6.4l20.5-4.6c0-0.2-0.1-0.3-0.1-0.5
		c0-4.3,3.5-7.8,7.8-7.8c3.3,0,6.1,2,7.2,4.9l63-14.2c0.3-0.8,0.9-1.4,2-1.4c0.7,0,1.2,0.3,1.5,0.6l5.1-1.1c-0.6-1.3-0.5-3,1.1-4.1
		c2.5-1.9,5.3,0.2,5.6,2.6l17.1-3.9l60.6-61.2l26.6-35.4l32-33.4l19.3-94.3L708.5,344.8z M698.2,386.1c3,0,3,4.6,0,4.6
		C695.2,390.7,695.2,386.1,698.2,386.1z M681.3,322.3c5.9,0,5.9,9.1,0,9.1C675.4,331.4,675.5,322.3,681.3,322.3z M676.4,381.2
		c-3,0-3-4.6,0-4.6C679.4,376.6,679.4,381.2,676.4,381.2z M675.8,346.7c1.9,0,1.9,2.9,0,2.9C674,349.6,674,346.7,675.8,346.7z
		 M668.4,337.1c3.9-3,8.5,3.1,4.6,6.1C669.1,346.1,664.4,340,668.4,337.1z M667.1,353.7c1.9,0,1.9,2.9,0,2.9
		C665.2,356.6,665.2,353.7,667.1,353.7z M659.7,366.2c3.9-3,8.5,3.1,4.6,6.1C660.4,375.3,655.8,369.2,659.7,366.2z M649.5,266.7
		c1.9,0,1.9,2.9,0,2.9C647.6,269.6,647.6,266.7,649.5,266.7z M646.5,286.1c3,0,3,4.6,0,4.6C643.5,290.7,643.5,286.1,646.5,286.1z
		 M644.2,309.2c3.9-3,8.5,3.1,4.6,6.1C644.9,318.2,640.3,312.1,644.2,309.2z M638.3,242.7c1.9,0,1.9,2.9,0,2.9
		C636.4,245.6,636.4,242.7,638.3,242.7z M633.9,238.3c3,0,3,4.6,0,4.6C630.9,242.9,630.9,238.3,633.9,238.3z M629.2,248.7
		c0,2.7-2.2,4.9-4.9,4.9s-4.9-2.2-4.9-4.9c0-2.7,2.2-4.9,4.9-4.9S629.2,246,629.2,248.7z M619,230.7c3.9-3,8.5,3.1,4.6,6.1
		C619.7,239.7,615.1,233.6,619,230.7z M613.5,212.1c0,2.8-2.2,5-5,5c-2.8,0-5-2.2-5-5c0-2.8,2.2-5,5-5
		C611.3,207,613.5,209.3,613.5,212.1z M603.8,197.6c3.9-3,8.5,3.1,4.6,6.1C604.5,206.7,599.8,200.6,603.8,197.6z M572,177.8
		c3.9-3,8.5,3.1,4.6,6.1C572.7,186.8,568.1,180.7,572,177.8z M536.9,175.2c1.9,0,1.9,2.9,0,2.9C535,178.1,535,175.2,536.9,175.2z
		 M520.5,171.3c3.9-3,8.5,3.1,4.6,6.1C521.1,180.4,516.5,174.3,520.5,171.3z M523.4,183.5c-1.9,0-1.9-2.9,0-2.9
		C525.3,180.6,525.3,183.5,523.4,183.5z M505.2,143.3c1.9,0,1.9,2.9,0,2.9C503.3,146.2,503.3,143.3,505.2,143.3z M498.2,182.4
		c-1.9,0-1.9-2.9,0-2.9C500,179.5,500,182.4,498.2,182.4z M492.4,136.1c3.9-3,8.5,3.1,4.6,6.1C493.1,145.1,488.4,139,492.4,136.1z
		 M379.5,141.1c3,0,3,4.6,0,4.6C376.6,145.8,376.6,141.1,379.5,141.1z M315.7,164.5c3.9-3,8.5,3.1,4.6,6.1
		C316.4,173.6,311.8,167.5,315.7,164.5z M231.7,209.9c2.5,0,4.5,2,4.5,4.5c0,2.5-2,4.5-4.5,4.5s-4.5-2-4.5-4.5
		C227.2,212,229.3,209.9,231.7,209.9z M217.9,194.4c2.6,0,4.7,2.1,4.7,4.7c0,2.6-2.1,4.7-4.7,4.7c-2.6,0-4.7-2.1-4.7-4.7
		C213.2,196.5,215.3,194.4,217.9,194.4z M204.3,202.3c3.9,0,7.1,3.2,7.1,7.1s-3.2,7.1-7.1,7.1c-3.9,0-7.1-3.2-7.1-7.1
		S200.4,202.3,204.3,202.3z M187.6,227.3c1.7,0,3.1,1.4,3.1,3.1c0,1.7-1.4,3.1-3.1,3.1s-3-1.4-3-3.1
		C184.5,228.6,185.9,227.3,187.6,227.3z M131.7,553.3c-2.2,1.7-4.8-1.7-2.6-3.4C131.3,548.2,133.9,551.6,131.7,553.3z M148.7,592.2
		c-3.9,3-8.5-3.1-4.6-6.1C148,583.1,152.6,589.2,148.7,592.2z M144.5,551.6c1.9,0,1.9,2.9,0,2.9
		C142.6,554.5,142.6,551.6,144.5,551.6z M150.4,569.5c-1.9,0-1.9-2.9,0-2.9C152.3,566.6,152.3,569.5,150.4,569.5z M155.3,560.2
		L155.3,560.2c0,1.2-0.7,2.3-2.2,2.3c-3,0-3-4.6,0-4.6c0.4,0,0.7,0.1,1,0.2c0.2-0.5,0.5-0.9,1.2-0.9
		C157.2,557.3,157.2,560.2,155.3,560.2z M160.2,549.5c-3.9,3-8.5-3.1-4.6-6.1C159.5,540.5,164.1,546.6,160.2,549.5z M169.9,569.1
		c-3.9,3-8.5-3.1-4.6-6.1C169.2,560,173.8,566.1,169.9,569.1z M441.9,702.3c-2,0-3.6-1.6-3.6-3.6c0-2,1.6-3.6,3.6-3.6
		c2,0,3.6,1.6,3.6,3.6C445.4,700.7,443.8,702.3,441.9,702.3z M449.6,677.8c-2.6,0-4.8-2.1-4.8-4.8c0-2.6,2.1-4.8,4.8-4.8
		c2.6,0,4.8,2.1,4.8,4.8C454.3,675.7,452.2,677.8,449.6,677.8z M475.2,682.9c-2.6,0-4.8-2.1-4.8-4.8c0-0.5,0.1-1,0.3-1.5
		c-3.2-0.3-5.7-2.9-5.7-6.2c0-3.5,2.8-6.4,6.4-6.4s6.4,2.8,6.4,6.4c0,1.2-0.4,2.3-1,3.2c1.9,0.6,3.3,2.4,3.3,4.5
		C480,680.8,477.8,682.9,475.2,682.9z M498.3,683c-2,0-3.6-1.6-3.6-3.6c0-2,1.6-3.6,3.6-3.6s3.6,1.6,3.6,3.6
		C501.9,681.4,500.2,683,498.3,683z M504.7,660.8c3.7-2.8,8,2.9,4.3,5.7C505.4,669.3,501,663.5,504.7,660.8z M511.3,692.3
		c-1.8,0-1.8-2.7,0-2.7C513,689.6,513,692.3,511.3,692.3z M524.5,689c-3.7,2.8-8-2.9-4.3-5.7C523.9,680.5,528.2,686.2,524.5,689z
		 M527,679.8c-2.8,0-2.8-4.4,0-4.4C529.8,675.4,529.8,679.8,527,679.8z M527.1,671.5c1.8,0,1.8,2.7,0,2.7
		C525.3,674.2,525.3,671.5,527.1,671.5z M535.8,697.4c-2.8,0-2.8-4.3,0-4.3C538.7,693.1,538.6,697.4,535.8,697.4z M537.4,679.7
		c-2.6,0-4.7-2.1-4.7-4.7c0-2.6,2.1-4.7,4.7-4.7c2.6,0,4.7,2.1,4.7,4.7C542.1,677.6,540,679.7,537.4,679.7z M535.3,664.9
		c1.8,0,1.8,2.7,0,2.7C533.5,667.6,533.5,664.9,535.3,664.9z M548.7,689.5c-3.7,2.8-8-2.9-4.3-5.7
		C548.1,681,552.4,686.7,548.7,689.5z M558.2,666.1c-5,0-5-7.8,0-7.8C563.2,658.3,563.2,666.1,558.2,666.1z M573.7,669.4
		c3.7-2.8,8,2.9,4.3,5.7C574.3,677.9,570,672.2,573.7,669.4z M576.2,655.5c4.8,0,4.8,7.4,0,7.4C571.4,662.9,571.4,655.5,576.2,655.5
		z M577.5,687.7c-1.8,0-1.8-2.7,0-2.7C579.3,684.9,579.3,687.7,577.5,687.7z M579.9,684.3c-2.9,0-2.9-4.6,0-4.6
		C582.9,679.8,582.9,684.3,579.9,684.3z M584.1,635.2c-3.7,2.8-8-2.9-4.3-5.7C583.5,626.7,587.8,632.4,584.1,635.2z M615.4,582.2
		c-3,0-3-4.6,0-4.6C618.4,577.6,618.4,582.2,615.4,582.2z M608.3,553.9l-18,31.5l-26,25.3l-16.7,11.9c1.1,3.4-0.7,7.8-5.3,7.8
		c-1.6,0-2.8-0.6-3.7-1.4l-13.3,9.5l-25.4,4.8c0.3,0.9,0.5,1.9,0.5,2.9c0,5.4-4.3,9.7-9.7,9.7c-5.1,0-9.3-4-9.6-9l-50.6,9.6
		l-76.9,1.3l-159-76.9l-25-46.6c-0.1,0.8-0.5,1.6-1.4,2.3c-3.9,3-8.5-3.1-4.6-6.1c1.3-1,2.7-0.9,3.8-0.4l-7.8-14.4L141.1,483
		l-10.8-36.9l3.1-36.8l13.6-83.7l17.9-43.6l34-39.2l34-16.5c0.1-8.7,7.1-15.7,15.7-15.7c3.7,0,7,1.3,9.6,3.4l45.1-21.8l60-23.5
		l36.2-5.5l38.4,3.4l37.2,7.6l87.2,30.8l18.3,19.2c0.9-0.7,1.9-1.1,3-1.1c2.8,0,5,2.2,5,5c0,1.3-0.5,2.4-1.3,3.2l1.8,1.9l29.1,45.5
		c3.8-2,7.8,3.5,4.1,6.4l14.5,22.6l4.1,95.5c1.4,0.8,1.4,2.9,0.2,3.9l2.1,47.3l-1.1,6.5c1.2,1.5,1.4,3.8-0.6,5.3
		c-0.1,0.1-0.3,0.1-0.4,0.2l-4,22.8l-11.9,33.4L608.3,553.9z M637.1,536.4c-3.9,3-8.5-3.1-4.6-6.1
		C636.4,527.3,641,533.4,637.1,536.4z M642.1,551.5c-3,0-3-4.6,0-4.6C645.1,546.9,645.1,551.5,642.1,551.5z M646.2,509.9
		c-3.9,3-8.5-3.1-4.6-6.1C645.5,500.8,650.1,506.9,646.2,509.9z M643.3,342.3c3.9-3,8.5,3.1,4.6,6.1
		C644,351.3,639.4,345.2,643.3,342.3z M650.3,372.9c1.9,0,1.9,2.9,0,2.9C648.4,375.8,648.4,372.9,650.3,372.9z M651.4,425.5
		c-3,0-3-4.6,0-4.6C654.3,420.9,654.3,425.5,651.4,425.5z M654.5,503.9c3.9-3,8.5,3.1,4.6,6.1C655.2,513,650.6,506.9,654.5,503.9z
		 M660.1,543.2c-3.1,2.3-6.5-0.9-6-3.9c-0.8-1.4-0.2-3.6,1.9-3.6c0.7,0,1.2,0.3,1.6,0.6C660.8,536.3,663.4,540.8,660.1,543.2z
		 M663.4,494.1c-2.7,2-5.8-2.1-3.1-4.1C662.9,487.9,666,492.1,663.4,494.1z M664.7,424c-1.9,0-1.9-2.9,0-2.9
		C666.6,421.1,666.6,424,664.7,424z M667,357.8c3,0,3,4.6,0,4.6C664,362.5,664,357.8,667,357.8z M669.6,393.9c3.9-3,8.5,3.1,4.6,6.1
		C670.3,403,665.7,396.9,669.6,393.9z M672.1,416.2c3,0,3,4.6,0,4.6C669.1,420.8,669.1,416.2,672.1,416.2z M673.7,519.1
		c3.9-3,8.5,3.1,4.6,6.1C674.3,528.1,669.7,522,673.7,519.1z M681.8,554.5c-3.9,3-8.5-3.1-4.6-6.1
		C681.1,545.5,685.7,551.6,681.8,554.5z M685.5,366.8c3.9-3,8.5,3.1,4.6,6.1C686.2,375.8,681.5,369.7,685.5,366.8z M689.1,438.3
		c3,0,3,4.6,0,4.6C686.1,442.9,686.1,438.3,689.1,438.3z M692.1,481.5c-2.5,1.9-5.4-2-2.9-3.9C691.7,475.8,694.6,479.6,692.1,481.5z
		 M695.5,406.1c3.9-3,8.5,3.1,4.6,6.1C696.2,415.2,691.6,409.1,695.5,406.1z M705.6,510.7c-3.9,3-8.5-3.1-4.6-6.1
		C704.9,501.7,709.5,507.8,705.6,510.7z M706.9,413.5c-3,0-3-4.6,0-4.6C709.9,408.8,709.9,413.5,706.9,413.5z M706.3,381.2
		c3.9-3,8.5,3.1,4.6,6.1C707,390.3,702.4,384.2,706.3,381.2z"/>
</g>
</svg>
